<svg height="200" width="200" xmlns="http://www.w3.org/2000/svg" viewBox="0 0 100 100"><path d="M50 61.4A16 16 0 0 1 61.4 66l4.7-4.7A22.6 22.6 0 0 0 53.3 55l-6.8 6.8a16 16 0 0 1 3.5-.4zM43.5 70.8l6.5 6.6 6.6-6.6a9.3 9.3 0 0 0-13.1 0zM50 41.5c-9.8 0-18.8 4-25.3 10.6l4.7 4.6C33.2 53 38 50.3 43.3 49l7.4-7.4H50zM70.7 56.7l4.7-4.6a36 36 0 0 0-11.5-7.8l-5.1 5.2c4.5 1.4 8.6 4 11.9 7.2zM50 28.3a49 49 0 0 0-34.6 14.4l4.7 4.7a42.3 42.3 0 0 1 36.7-11.9l5.6-5.6c-4-1-8.1-1.6-12.4-1.6zM69 39.4c4 2 7.8 4.8 11 8l4.7-4.7c-3.2-3.2-6.9-6-10.9-8.2L69 39.4z"/><path d="M50.3 4.3a45.7 45.7 0 1 0 0 91.5 45.7 45.7 0 0 0 0-91.5zm0 6.6c9.4 0 18 3.4 24.8 9l-55 55A39.1 39.1 0 0 1 50.2 11zm0 78.2c-9.4 0-18-3.4-24.8-9l55-55A39.1 39.1 0 0 1 50.3 89z"/></svg>